#!OML:ASF I:\Actors\actors\Patient Classification 2\Patient 1\Session 1\actor1.ASF
:FULLY-SPECIFIED
:DEGREES
1110
root -0.695979 18.5949 6.54485 0.658001 -0.235507 0.409495
lowerback 0.223844 0.876425 -2.60333
upperback -3.22139 1.14704 1.05549
thorax -3.51435 0.665691 2.50845
lowerneck -9.96088 -2.28968 -0.887198
upperneck 19.3631 -3.21475 1.02267
head 7.62926 -1.50465 0.178395
rclavicle -3.40419e-015 3.37934e-015
rhumerus -54.1544 -6.07045 -82.3272
rradius 40.9435
rwrist 12.0993
rhand -7.22806 -40.4914
rfingers 7.12502
rthumb 18.6515 -429.617
lclavicle -3.40419e-015 3.37934e-015
lhumerus -42.8653 0.929242 91.1579
lradius 38.4894
lwrist -2.20238
lhand -4.06979 -21.9422
lfingers 7.12502
lthumb 21.6869 6.86316
rfemur 8.84046 3.15525 14.3456
rtibia -6.36111e-015
rfoot -16.6544 -9.27695
rtoes -5.66378
lfemur 0.337183 -9.17118 -15.2984
ltibia 19.1525
lfoot -25.9851 18.1249
ltoes -53.9636
1111
root -0.723307 18.5996 6.55806 0.767662 -0.373733 0.866488
lowerback -0.161496 0.901793 -3.51405
upperback -3.23274 1.17307 0.995884
thorax -3.33154 0.701257 2.96373
lowerneck -9.90576 -2.29091 -1.00145
upperneck 19.1737 -3.24399 1.27586
head 7.56382 -1.50485 0.279042
rclavicle -5.56597e-015 1.98785e-016
rhumerus -54.1097 -5.84031 -82.7025
rradius 41.1468
rwrist 12.1829
rhand -7.03791 -40.601
rfingers 7.12502
rthumb 18.8344 -429.709
lclavicle -5.56597e-015 1.98785e-016
lhumerus -42.9284 0.305584 91.7534
lradius 39.0687
lwrist -1.86618
lhand -4.75164 -20.6527
lfingers 7.12502
lthumb 21.032 8.22678
rfemur 8.71777 3.27228 13.9233
rtibia 5.08889e-014
rfoot -16.6394 -9.26754
rtoes -5.43526
lfemur 0.227269 -9.20659 -15.7365
ltibia 19.1545
lfoot -25.9689 18.3499
ltoes -54.0615
1112
root -0.735175 18.6 6.56311 0.739252 -0.412602 0.991171
lowerback -0.266918 0.898212 -3.82388
upperback -3.23669 1.16653 0.976635
thorax -3.28315 0.705607 3.11989
lowerneck -9.85534 -2.30252 -1.10002
upperneck 19.0345 -3.27267 1.438
head 7.51403 -1.51192 0.346908
rclavicle -7.23079e-015 8.74653e-015
rhumerus -54.0494 -5.59372 -83.0361
rradius 41.3706
rwrist 12.1579
rhand -7.03587 -40.564
rfingers 7.12502
rthumb 18.8363 -429.672
lclavicle -7.23079e-015 8.74653e-015
lhumerus -42.8922 0.154899 91.9816
lradius 39.1654
lwrist -1.68974
lhand -4.80662 -20.9716
lfingers 7.12502
lthumb 20.9792 7.91374
rfemur 8.75039 3.30992 13.8277
rtibia -2.22639e-014
rfoot -16.6382 -9.25787
rtoes -5.27168
lfemur 0.301783 -9.07851 -15.8359
ltibia 19.0546
lfoot -25.7675 18.3925
ltoes -54.183
1113
root -0.739002 18.5982 6.56463 0.643769 -0.40228 0.992231
lowerback -0.263463 0.883613 -3.87
upperback -3.20537 1.14624 0.964863
thorax -3.25178 0.695401 3.13445
lowerneck -9.85069 -2.30302 -1.05857
upperneck 18.8848 -3.25982 1.34712
head 7.46165 -1.5122 0.31239
rclavicle 9.36773e-015 -7.35503e-015
rhumerus -53.9344 -5.33379 -83.3692
rradius 41.6248
rwrist 12.0212
rhand -6.75588 -40.5389
rfingers 7.12502
rthumb 19.1056 -429.621
lclavicle 9.36773e-015 -7.35503e-015
lhumerus -42.7981 0.0125098 92.1945
lradius 39.2772
lwrist -1.59661
lhand -4.78431 -20.9749
lfingers 7.12502
lthumb 21.0006 7.90813
rfemur 8.86458 3.30854 13.845
rtibia 1.43125e-014
rfoot -16.6315 -9.243
rtoes -5.23703
lfemur 0.453855 -8.99735 -15.8307
ltibia 18.956
lfoot -25.6421 18.3904
ltoes -54.2057
1114
root -0.743055 18.5969 6.56562 0.549401 -0.388834 1.02179
lowerback -0.258822 0.878163 -3.94254
upperback -3.16083 1.13732 0.931161
thorax -3.20848 0.690756 3.14092
lowerneck -9.85624 -2.29735 -0.960236
upperneck 18.7254 -3.24212 1.22431
head 7.40643 -1.50898 0.258517
rclavicle -7.25564e-015 -2.18663e-015
rhumerus -53.7877 -5.1068 -83.7179
rradius 41.9382
rwrist 11.8332
rhand -6.76085 -40.5241
rfingers 7.12502
rthumb 19.1008 -429.606
lclavicle -7.25564e-015 -2.18663e-015
lhumerus -42.6936 -0.135117 92.359
lradius 39.3429
lwrist -1.58583
lhand -4.83027 -20.92
lfingers 7.12502
lthumb 20.9565 7.96785
rfemur 8.97779 3.30379 13.831
rtibia 6.36111e-015
rfoot -16.6268 -9.23065
rtoes -5.26968
lfemur 0.556536 -8.99993 -15.865
ltibia 18.9646
lfoot -25.6676 18.3761
ltoes -54.142
